# xmcd CD database file
#
# Track frame offsets:
#	150
#	9775
#	25922
#	42797
#	50637
#	71925
#	84685
#	98360
#	112582
#	123875
#	142757
#	149900
#
# Disc length: 2193 seconds
#
# Revision: 0
# Processed by: cddbd v1.5PL3 Copyright (c) Steve Scherf et al.
# Submitted via: CDex 1.50beta10
#
DISCID=96088f0c
DTITLE=Johnny Farmer - Wrong Doers Respect Me
DYEAR=1998
DGENRE=Blues
TTITLE0=Death Letter
TTITLE1=I've Been A Fool
TTITLE2=Hush Hush Hush Hush
TTITLE3=Instrumental
TTITLE4=Trouble Me
TTITLE5=Way Down South
TTITLE6=Screamin' And Cryin'
TTITLE7=It Hurts Me
TTITLE8=Lonely Road
TTITLE9=Vacation Song
TTITLE10=Seven Up
TTITLE11=Instrumenta #12
EXTD=YEAR: 1998
EXTT0=
EXTT1=
EXTT2=
EXTT3=
EXTT4=
EXTT5=
EXTT6=
EXTT7=
EXTT8=
EXTT9=
EXTT10=
EXTT11=
PLAYORDER=
